<?xml version="1.0" encoding="utf-8"?>
<!-- Generator: Adobe Illustrator 23.0.0, SVG Export Plug-In . SVG Version: 6.00 Build 0)  -->
<svg version="1.1" id="Layer_1" xmlns="http://www.w3.org/2000/svg" xmlns:xlink="http://www.w3.org/1999/xlink" x="0px" y="0px"
	 viewBox="0 0 252 245" style="enable-background:new 0 0 252 245;" xml:space="preserve">
<style type="text/css">
	.st0{clip-path:url(#SVGID_14_);fill:none;stroke:#E0E0E0;stroke-width:0.43;stroke-linejoin:round;stroke-miterlimit:10;}
	.st1{clip-path:url(#SVGID_16_);fill:none;stroke:#E0E0E0;stroke-width:0.43;stroke-linejoin:round;stroke-miterlimit:10;}
	.st2{clip-path:url(#SVGID_26_);fill:#595959;}
	.st3{clip-path:url(#SVGID_28_);fill:#595959;}
	.st4{clip-path:url(#SVGID_30_);fill:#595959;}
	.st5{clip-path:url(#SVGID_32_);fill:#595959;}
	.st6{clip-path:url(#SVGID_34_);fill:#595959;}
	.st7{clip-path:url(#SVGID_36_);fill:#595959;}
</style>
<g>
	<defs>
		<rect id="SVGID_1_" y="5.5" width="246.5" height="232.4"/>
	</defs>
	<clipPath id="SVGID_2_">
		<use xlink:href="#SVGID_1_"  style="overflow:visible;"/>
	</clipPath>
</g>
<g>
	<defs>
		<rect id="SVGID_3_" y="5.5" width="246.5" height="232.4"/>
	</defs>
	<clipPath id="SVGID_4_">
		<use xlink:href="#SVGID_3_"  style="overflow:visible;"/>
	</clipPath>
</g>
<g>
	<defs>
		<rect id="SVGID_5_" y="5.5" width="246.5" height="232.4"/>
	</defs>
	<clipPath id="SVGID_6_">
		<use xlink:href="#SVGID_5_"  style="overflow:visible;"/>
	</clipPath>
</g>
<g>
	<defs>
		<rect id="SVGID_7_" y="5.5" width="246.5" height="232.4"/>
	</defs>
	<clipPath id="SVGID_8_">
		<use xlink:href="#SVGID_7_"  style="overflow:visible;"/>
	</clipPath>
</g>
<g>
	<defs>
		<rect id="SVGID_9_" y="5.5" width="246.5" height="232.4"/>
	</defs>
	<clipPath id="SVGID_10_">
		<use xlink:href="#SVGID_9_"  style="overflow:visible;"/>
	</clipPath>
</g>
<g>
	<defs>
		<rect id="SVGID_11_" y="5.5" width="246.5" height="232.4"/>
	</defs>
	<clipPath id="SVGID_12_">
		<use xlink:href="#SVGID_11_"  style="overflow:visible;"/>
	</clipPath>
</g>
<g>
	<defs>
		<rect id="SVGID_13_" y="5.5" width="246.5" height="232.4"/>
	</defs>
	<clipPath id="SVGID_14_">
		<use xlink:href="#SVGID_13_"  style="overflow:visible;"/>
	</clipPath>
	<line class="st0" x1="11.2" y1="237.9" x2="11.2" y2="5.5"/>
</g>
<g>
	<defs>
		<rect id="SVGID_15_" y="5.5" width="246.5" height="232.4"/>
	</defs>
	<clipPath id="SVGID_16_">
		<use xlink:href="#SVGID_15_"  style="overflow:visible;"/>
	</clipPath>
	<line class="st1" x1="56" y1="237.9" x2="56" y2="5.5"/>
</g>
<g>
	<defs>
		<rect id="SVGID_17_" y="5.5" width="246.5" height="232.4"/>
	</defs>
	<clipPath id="SVGID_18_">
		<use xlink:href="#SVGID_17_"  style="overflow:visible;"/>
	</clipPath>
</g>
<g>
	<defs>
		<rect id="SVGID_19_" y="5.5" width="246.5" height="232.4"/>
	</defs>
	<clipPath id="SVGID_20_">
		<use xlink:href="#SVGID_19_"  style="overflow:visible;"/>
	</clipPath>
</g>
<g>
	<defs>
		<rect id="SVGID_21_" y="5.5" width="246.5" height="232.4"/>
	</defs>
	<clipPath id="SVGID_22_">
		<use xlink:href="#SVGID_21_"  style="overflow:visible;"/>
	</clipPath>
</g>
<g>
	<defs>
		<rect id="SVGID_23_" y="5.5" width="246.5" height="232.4"/>
	</defs>
	<clipPath id="SVGID_24_">
		<use xlink:href="#SVGID_23_"  style="overflow:visible;"/>
	</clipPath>
</g>
<g>
	<defs>
		<rect id="SVGID_25_" y="5.5" width="246.5" height="232.4"/>
	</defs>
	<clipPath id="SVGID_26_">
		<use xlink:href="#SVGID_25_"  style="overflow:visible;"/>
	</clipPath>
	<rect x="11.2" y="198.5" class="st2" width="63.6" height="33.7"/>
</g>
<g>
	<defs>
		<rect id="SVGID_27_" y="5.5" width="246.5" height="232.4"/>
	</defs>
	<clipPath id="SVGID_28_">
		<use xlink:href="#SVGID_27_"  style="overflow:visible;"/>
	</clipPath>
	<rect x="11.2" y="161.1" class="st3" width="82.1" height="33.7"/>
</g>
<g>
	<defs>
		<rect id="SVGID_29_" y="5.5" width="246.5" height="232.4"/>
	</defs>
	<clipPath id="SVGID_30_">
		<use xlink:href="#SVGID_29_"  style="overflow:visible;"/>
	</clipPath>
	<rect x="11.2" y="123.6" class="st4" width="79.5" height="33.7"/>
</g>
<g>
	<defs>
		<rect id="SVGID_31_" y="5.5" width="246.5" height="232.4"/>
	</defs>
	<clipPath id="SVGID_32_">
		<use xlink:href="#SVGID_31_"  style="overflow:visible;"/>
	</clipPath>
	<rect x="11.2" y="86.1" class="st5" width="72.6" height="33.7"/>
</g>
<g>
	<defs>
		<rect id="SVGID_33_" y="5.5" width="246.5" height="232.4"/>
	</defs>
	<clipPath id="SVGID_34_">
		<use xlink:href="#SVGID_33_"  style="overflow:visible;"/>
	</clipPath>
	<rect x="11.2" y="48.6" class="st6" width="79.9" height="33.7"/>
</g>
<g>
	<defs>
		<rect id="SVGID_35_" y="5.5" width="246.5" height="232.4"/>
	</defs>
	<clipPath id="SVGID_36_">
		<use xlink:href="#SVGID_35_"  style="overflow:visible;"/>
	</clipPath>
	<rect x="11.2" y="11.1" class="st7" width="98.2" height="33.7"/>
</g>
<g>
	<defs>
		<rect id="SVGID_37_" x="-108" width="360" height="288"/>
	</defs>
	<clipPath id="SVGID_38_">
		<use xlink:href="#SVGID_37_"  style="overflow:visible;"/>
	</clipPath>
</g>
<g>
	<defs>
		<rect id="SVGID_39_" x="-108" width="360" height="288"/>
	</defs>
	<clipPath id="SVGID_40_">
		<use xlink:href="#SVGID_39_"  style="overflow:visible;"/>
	</clipPath>
	<g style="clip-path:url(#SVGID_40_);enable-background:new    ;">
		<polygon style="fill:none;" points="-59.2,218.6 -59.2,218.6 -59.2,218.6 -59.2,218.6 		"/>
		<text transform="matrix(0 0 0 0 -107.98 2592)"><tspan x="-108" y="2592" style="font-family:'AvenirNext-Regular'; font-size:8.8px;">Evanston</tspan><tspan x="-108" y="2592" style="font-family:'AvenirNext-Regular'; font-size:8.8px;"> </tspan><tspan x="-108" y="2592" style="font-family:'AvenirNext-Regular'; font-size:8.8px;">city</tspan></text>
	</g>
</g>
<g>
	<defs>
		<rect id="SVGID_41_" x="-108" width="360" height="288"/>
	</defs>
	<clipPath id="SVGID_42_">
		<use xlink:href="#SVGID_41_"  style="overflow:visible;"/>
	</clipPath>
	<g style="clip-path:url(#SVGID_42_);enable-background:new    ;">
		<polygon style="fill:none;" points="-89.5,181.1 -89.5,181.1 -89.5,181.1 -89.5,181.1 		"/>
		<text transform="matrix(0 0 0 0 -107.98 2592)"><tspan x="-108" y="2592" style="font-family:'AvenirNext-Regular'; font-size:8.8px;">Farmington</tspan><tspan x="-108" y="2592" style="font-family:'AvenirNext-Regular'; font-size:8.8px;"> </tspan><tspan x="-108" y="2592" style="font-family:'AvenirNext-Regular'; font-size:8.8px;">Hills</tspan><tspan x="-108" y="2592" style="font-family:'AvenirNext-Regular'; font-size:8.8px;"> </tspan><tspan x="-108" y="2592" style="font-family:'AvenirNext-Regular'; font-size:8.8px;">city</tspan></text>
	</g>
</g>
<g>
	<defs>
		<rect id="SVGID_43_" x="-108" width="360" height="288"/>
	</defs>
	<clipPath id="SVGID_44_">
		<use xlink:href="#SVGID_43_"  style="overflow:visible;"/>
	</clipPath>
	<g style="clip-path:url(#SVGID_44_);enable-background:new    ;">
		<polygon style="fill:none;" points="-76.2,143.6 -76.2,143.6 -76.2,143.6 -76.2,143.6 		"/>
		<text transform="matrix(0 0 0 0 -107.98 2592)"><tspan x="-108" y="2592" style="font-family:'AvenirNext-Regular'; font-size:8.8px;">Gaithersburg</tspan><tspan x="-108" y="2592" style="font-family:'AvenirNext-Regular'; font-size:8.8px;"> </tspan><tspan x="-108" y="2592" style="font-family:'AvenirNext-Regular'; font-size:8.8px;">city</tspan></text>
	</g>
</g>
<g>
	<defs>
		<rect id="SVGID_45_" x="-108" width="360" height="288"/>
	</defs>
	<clipPath id="SVGID_46_">
		<use xlink:href="#SVGID_45_"  style="overflow:visible;"/>
	</clipPath>
	<g style="clip-path:url(#SVGID_46_);enable-background:new    ;">
		<polygon style="fill:none;" points="-52,106.1 -52,106.1 -52,106.1 -52,106.1 		"/>
		<text transform="matrix(0 0 0 0 -107.98 2592)" style="font-family:'AvenirNext-Regular'; font-size:8.8px;">Hoover city</text>
	</g>
</g>
<g>
	<defs>
		<rect id="SVGID_47_" x="-108" width="360" height="288"/>
	</defs>
	<clipPath id="SVGID_48_">
		<use xlink:href="#SVGID_47_"  style="overflow:visible;"/>
	</clipPath>
	<g style="clip-path:url(#SVGID_48_);enable-background:new    ;">
		<polygon style="fill:none;" points="-78.1,68.7 -78.1,68.7 -78.1,68.7 -78.1,68.7 		"/>
		<text transform="matrix(0 0 0 0 -107.98 2592)" style="font-family:'AvenirNext-Regular'; font-size:8.8px;">Silver Spring CDP</text>
	</g>
</g>
<g>
	<defs>
		<rect id="SVGID_49_" x="-108" width="360" height="288"/>
	</defs>
	<clipPath id="SVGID_50_">
		<use xlink:href="#SVGID_49_"  style="overflow:visible;"/>
	</clipPath>
	<g style="clip-path:url(#SVGID_50_);enable-background:new    ;">
		<polygon style="fill:none;" points="-65.2,31.2 -65.2,31.2 -65.2,31.2 -65.2,31.2 		"/>
		<text transform="matrix(0 0 0 0 -107.98 2592)" style="font-family:'AvenirNext-Regular'; font-size:8.8px;">Somerville city</text>
	</g>
</g>
<g>
	<defs>
		<rect id="SVGID_51_" x="-108" width="360" height="288"/>
	</defs>
	<clipPath id="SVGID_52_">
		<use xlink:href="#SVGID_51_"  style="overflow:visible;"/>
	</clipPath>
</g>
<g>
	<defs>
		<rect id="SVGID_53_" x="-108" width="360" height="288"/>
	</defs>
	<clipPath id="SVGID_54_">
		<use xlink:href="#SVGID_53_"  style="overflow:visible;"/>
	</clipPath>
	<g style="clip-path:url(#SVGID_54_);enable-background:new    ;">
		<polygon style="fill:none;" points="2,258.2 2,258.2 2,258.2 2,258.2 		"/>
		<text transform="matrix(0 0 0 0 -107.98 2592)" style="font-family:'AvenirNext-Regular'; font-size:8.8px;">0.00</text>
	</g>
</g>
<g>
	<defs>
		<rect id="SVGID_55_" x="-108" width="360" height="288"/>
	</defs>
	<clipPath id="SVGID_56_">
		<use xlink:href="#SVGID_55_"  style="overflow:visible;"/>
	</clipPath>
	<g style="clip-path:url(#SVGID_56_);enable-background:new    ;">
		<polygon style="fill:none;" points="46.8,258.2 46.8,258.2 46.8,258.2 46.8,258.2 		"/>
		<text transform="matrix(0 0 0 0 -107.98 2592)" style="font-family:'AvenirNext-Regular'; font-size:8.8px;">0.05</text>
	</g>
</g>
<g>
	<defs>
		<rect id="SVGID_57_" x="-108" width="360" height="288"/>
	</defs>
	<clipPath id="SVGID_58_">
		<use xlink:href="#SVGID_57_"  style="overflow:visible;"/>
	</clipPath>
	<g style="clip-path:url(#SVGID_58_);enable-background:new    ;">
		<polygon style="fill:none;" points="91.7,258.2 91.7,258.2 91.7,258.2 91.7,258.2 		"/>
		<text transform="matrix(0 0 0 0 -107.98 2592)" style="font-family:'AvenirNext-Regular'; font-size:8.8px;">0.10</text>
	</g>
</g>
<g>
	<defs>
		<rect id="SVGID_59_" x="-108" width="360" height="288"/>
	</defs>
	<clipPath id="SVGID_60_">
		<use xlink:href="#SVGID_59_"  style="overflow:visible;"/>
	</clipPath>
	<g style="clip-path:url(#SVGID_60_);enable-background:new    ;">
		<polygon style="fill:none;" points="136.5,258.2 136.5,258.2 136.5,258.2 136.5,258.2 		"/>
		<text transform="matrix(0 0 0 0 -107.98 2592)" style="font-family:'AvenirNext-Regular'; font-size:8.8px;">0.15</text>
	</g>
</g>
<g>
	<defs>
		<rect id="SVGID_61_" x="-108" width="360" height="288"/>
	</defs>
	<clipPath id="SVGID_62_">
		<use xlink:href="#SVGID_61_"  style="overflow:visible;"/>
	</clipPath>
	<g style="clip-path:url(#SVGID_62_);enable-background:new    ;">
		<polygon style="fill:none;" points="181.3,258.2 181.3,258.2 181.3,258.2 181.3,258.2 		"/>
		<text transform="matrix(0 0 0 0 -107.98 2592)" style="font-family:'AvenirNext-Regular'; font-size:8.8px;">0.20</text>
	</g>
</g>
<g>
	<defs>
		<rect id="SVGID_63_" x="-108" width="360" height="288"/>
	</defs>
	<clipPath id="SVGID_64_">
		<use xlink:href="#SVGID_63_"  style="overflow:visible;"/>
	</clipPath>
	<g style="clip-path:url(#SVGID_64_);enable-background:new    ;">
		<polygon style="fill:none;" points="226.1,258.2 226.1,258.2 226.1,258.2 226.1,258.2 		"/>
		<text transform="matrix(0 0 0 0 -107.98 2592)" style="font-family:'AvenirNext-Regular'; font-size:8.8px;">0.25</text>
	</g>
</g>
<g>
	<polygon style="fill:none;" points="105,280 105,280 105,280 105,280 	"/>
	<text transform="matrix(0 0 0 0 -107.98 2592)" style="enable-background:new    ;"><tspan x="-108" y="2592" style="fill:#4D4D4D; font-family:'AvenirNext-Regular'; font-size:11px; letter-spacing:1;">Per_</tspan><tspan x="-108" y="2592" style="fill:#4D4D4D; font-family:'AvenirNext-Regular'; font-size:11px;">H</tspan></text>
</g>
</svg>
